<?xml version="1.0" encoding="UTF-8" standalone="no"?>
<!-- Created with Inkscape (http://www.inkscape.org/) -->

<svg
   version="1.1"
   id="svg2"
   width="1821.3333"
   height="1024"
   viewBox="0 0 1821.3333 1024"
   sodipodi:docname="RCBT_final_long.ai"
   xmlns:inkscape="http://www.inkscape.org/namespaces/inkscape"
   xmlns:sodipodi="http://sodipodi.sourceforge.net/DTD/sodipodi-0.dtd"
   xmlns="http://www.w3.org/2000/svg"
   xmlns:svg="http://www.w3.org/2000/svg">
  <defs
     id="defs6">
    <clipPath
       clipPathUnits="userSpaceOnUse"
       id="clipPath52">
      <path
         d="M 0,768 H 1366 V 0 H 0 Z"
         id="path50" />
    </clipPath>
  </defs>
  <sodipodi:namedview
     id="namedview4"
     pagecolor="#ffffff"
     bordercolor="#000000"
     borderopacity="0.25"
     inkscape:showpageshadow="2"
     inkscape:pageopacity="0.0"
     inkscape:pagecheckerboard="0"
     inkscape:deskcolor="#d1d1d1" />
  <g
     id="g8"
     inkscape:groupmode="layer"
     inkscape:label="RCBT_final_long"
     transform="matrix(1.3333333,0,0,-1.3333333,0,1024)">
    <text
       xml:space="preserve"
       transform="matrix(0.85013965,0,0,-1,341.8506,418.3994)"
       style="font-variant:normal;font-weight:bold;font-stretch:normal;font-size:74.8657px;font-family:Copperplate;-inkscape-font-specification:Copperplate-Bold;writing-mode:lr-tb;fill:#0c0094;fill-opacity:1;fill-rule:nonzero;stroke:none"
       id="text12"><tspan
         x="0 45.742943 103.98846 153.92387"
         y="0"
         sodipodi:role="line"
         id="tspan10">THE </tspan></text>
    <text
       xml:space="preserve"
       transform="matrix(0.85014,0,0,-1,492.1182,418.3994)"
       style="font-variant:normal;font-weight:bold;font-stretch:normal;font-size:100px;font-family:Copperplate;-inkscape-font-specification:Copperplate-Bold;writing-mode:lr-tb;fill:#0c0094;fill-opacity:1;fill-rule:nonzero;stroke:none"
       id="text16"><tspan
         x="0"
         y="0"
         id="tspan14">R</tspan></text>
    <text
       xml:space="preserve"
       transform="matrix(0.85013965,0,0,-1,553.4971,418.3994)"
       style="font-variant:normal;font-weight:bold;font-stretch:normal;font-size:74.8657px;font-family:Copperplate;-inkscape-font-specification:Copperplate-Bold;writing-mode:lr-tb;fill:#0c0094;fill-opacity:1;fill-rule:nonzero;stroke:none"
       id="text20"><tspan
         x="0 49.935421 99.870842 149.80626 203.8593 257.91232 311.96536 370.21088"
         y="0"
         sodipodi:role="line"
         id="tspan18">ESEARCH </tspan></text>
    <text
       xml:space="preserve"
       transform="matrix(0.85014,0,0,-1,887.6348,418.3994)"
       style="font-variant:normal;font-weight:bold;font-stretch:normal;font-size:100px;font-family:Copperplate;-inkscape-font-specification:Copperplate-Bold;writing-mode:lr-tb;fill:#0c0094;fill-opacity:1;fill-rule:nonzero;stroke:none"
       id="text24"><tspan
         x="0"
         y="0"
         id="tspan22">C</tspan></text>
    <text
       xml:space="preserve"
       transform="matrix(0.85013965,0,0,-1,949.0137,418.3994)"
       style="font-variant:normal;font-weight:bold;font-stretch:normal;font-size:74.8657px;font-family:Copperplate;-inkscape-font-specification:Copperplate-Bold;writing-mode:lr-tb;fill:#0c0094;fill-opacity:1;fill-rule:nonzero;stroke:none"
       id="text28"><tspan
         x="0 49.935421 108.18094 153.92387 207.97691 257.91232 280.74637 330.68179 384.73483"
         y="0"
         sodipodi:role="line"
         id="tspan26">ENTRE FOR</tspan></text>
    <text
       xml:space="preserve"
       transform="matrix(0.85014,0,0,-1,356.624,315.4307)"
       style="font-variant:normal;font-weight:bold;font-stretch:normal;font-size:100px;font-family:Copperplate;-inkscape-font-specification:Copperplate-Bold;writing-mode:lr-tb;fill:#0c0094;fill-opacity:1;fill-rule:nonzero;stroke:none"
       id="text32"><tspan
         x="0"
         y="0"
         id="tspan30">B</tspan></text>
    <text
       xml:space="preserve"
       transform="matrix(0.85013965,0,0,-1,418.0029,315.4307)"
       style="font-variant:normal;font-weight:bold;font-stretch:normal;font-size:74.8657px;font-family:Copperplate;-inkscape-font-specification:Copperplate-Bold;writing-mode:lr-tb;fill:#0c0094;fill-opacity:1;fill-rule:nonzero;stroke:none"
       id="text36"><tspan
         x="0 49.935421 103.98846 158.04149 212.09453 266.14755 324.39307 378.44611 407.56888 465.81439"
         y="0"
         sodipodi:role="line"
         id="tspan34">LOCKCHAIN </tspan></text>
    <text
       xml:space="preserve"
       transform="matrix(0.85014,0,0,-1,833.416,315.4307)"
       style="font-variant:normal;font-weight:bold;font-stretch:normal;font-size:100px;font-family:Copperplate;-inkscape-font-specification:Copperplate-Bold;writing-mode:lr-tb;fill:#0c0094;fill-opacity:1;fill-rule:nonzero;stroke:none"
       id="text40"><tspan
         x="0"
         y="0"
         id="tspan38">T</tspan></text>
    <text
       xml:space="preserve"
       transform="matrix(0.85013965,0,0,-1,885.3594,315.4307)"
       style="font-variant:normal;font-weight:bold;font-stretch:normal;font-size:74.8657px;font-family:Copperplate;-inkscape-font-specification:Copperplate-Bold;writing-mode:lr-tb;fill:#0c0094;fill-opacity:1;fill-rule:nonzero;stroke:none"
       id="text44"><tspan
         x="0 49.935421 103.98846 162.23398 220.47949 274.53253 324.46796 378.52097 432.57401"
         y="0"
         sodipodi:role="line"
         id="tspan42">ECHNOLOGY</tspan></text>
    <g
       id="g46">
      <g
         id="g48"
         clip-path="url(#clipPath52)">
        <g
           id="g54"
           transform="translate(218.8513,447.1664)">
          <path
             d="m 0,0 -24.897,-23.726 c -12.987,-12.377 -33.739,-11.877 -46.115,1.11 l -24.092,25.28 c -12.377,12.987 -11.877,33.739 1.11,46.116 l 24.897,23.726 c 12.987,12.376 33.739,11.877 46.115,-1.11 L 1.11,46.115 C 13.487,33.128 12.987,12.376 0,0"
             style="fill:#0c0094;fill-opacity:1;fill-rule:nonzero;stroke:none"
             id="path56" />
        </g>
        <g
           id="g58"
           transform="translate(200.4196,460.045)">
          <path
             d="m 0,0 -18.94,-18.049 c -6.75,-6.433 -17.535,-6.173 -23.968,0.577 L -57.61,-2.045 c -6.432,6.75 -6.173,17.536 0.577,23.968 l 18.94,18.049 c 6.75,6.433 17.535,6.173 23.968,-0.577 L 0.577,23.968 C 7.01,17.218 6.75,6.433 0,0"
             style="fill:#ffffff;fill-opacity:1;fill-rule:nonzero;stroke:none"
             id="path60" />
        </g>
        <g
           id="g62"
           transform="translate(159.3102,440.7989)">
          <path
             d="m 0,0 -29.698,-29.698 c -5.445,-5.445 -14.355,-5.445 -19.799,0 l -1.415,1.414 c -5.444,5.444 -5.444,14.354 0,19.799 l 29.699,29.698 c 5.445,5.445 14.354,5.445 19.799,0 L 0,19.799 C 5.445,14.354 5.445,5.445 0,0"
             style="fill:#0c0094;fill-opacity:1;fill-rule:nonzero;stroke:none"
             id="path64" />
        </g>
        <g
           id="g66"
           transform="translate(159.3102,440.7989)">
          <path
             d="m 0,0 -29.698,-29.698 c -5.445,-5.445 -14.355,-5.445 -19.799,0 l -1.415,1.414 c -5.444,5.444 -5.444,14.354 0,19.799 l 29.699,29.698 c 5.445,5.445 14.354,5.445 19.799,0 L 0,19.799 C 5.445,14.354 5.445,5.445 0,0 Z"
             style="fill:none;stroke:#ffffff;stroke-width:8;stroke-linecap:butt;stroke-linejoin:miter;stroke-miterlimit:10;stroke-dasharray:none;stroke-opacity:1"
             id="path68" />
        </g>
        <g
           id="g70"
           transform="translate(101.3055,435.0299)">
          <path
             d="m 0,0 23.726,-24.897 c 12.377,-12.987 11.877,-33.739 -1.11,-46.115 l -25.28,-24.092 c -12.987,-12.377 -33.739,-11.877 -46.116,1.11 l -23.726,24.897 c -12.376,12.987 -11.877,33.739 1.11,46.115 L -46.115,1.11 C -33.128,13.487 -12.376,12.987 0,0"
             style="fill:#004caa;fill-opacity:1;fill-rule:nonzero;stroke:none"
             id="path72" />
        </g>
        <g
           id="g74"
           transform="translate(88.427,416.5981)">
          <path
             d="m 0,0 18.049,-18.94 c 6.433,-6.75 6.173,-17.535 -0.577,-23.968 L 2.045,-57.61 c -6.75,-6.432 -17.536,-6.173 -23.968,0.577 l -18.049,18.94 c -6.433,6.75 -6.173,17.536 0.577,23.968 L -23.968,0.577 C -17.218,7.01 -6.433,6.75 0,0"
             style="fill:#ffffff;fill-opacity:1;fill-rule:nonzero;stroke:none"
             id="path76" />
        </g>
        <g
           id="g78"
           transform="translate(107.6731,375.4887)">
          <path
             d="m 0,0 29.698,-29.698 c 5.445,-5.445 5.445,-14.355 0,-19.799 l -1.414,-1.415 c -5.444,-5.444 -14.354,-5.444 -19.799,0 l -29.698,29.699 c -5.445,5.445 -5.445,14.354 0,19.799 L -19.799,0 C -14.354,5.445 -5.445,5.445 0,0"
             style="fill:#004caa;fill-opacity:1;fill-rule:nonzero;stroke:none"
             id="path80" />
        </g>
        <g
           id="g82"
           transform="translate(107.6731,375.4887)">
          <path
             d="m 0,0 29.698,-29.698 c 5.445,-5.445 5.445,-14.355 0,-19.799 l -1.414,-1.415 c -5.444,-5.444 -14.354,-5.444 -19.799,0 l -29.698,29.699 c -5.445,5.445 -5.445,14.354 0,19.799 L -19.799,0 C -14.354,5.445 -5.445,5.445 0,0 Z"
             style="fill:none;stroke:#ffffff;stroke-width:8;stroke-linecap:butt;stroke-linejoin:miter;stroke-miterlimit:10;stroke-dasharray:none;stroke-opacity:1"
             id="path84" />
        </g>
        <g
           id="g86"
           transform="translate(213.9128,271.6431)">
          <path
             d="m 0,0 -24.897,-23.726 c -12.987,-12.377 -33.739,-11.877 -46.115,1.11 l -24.092,25.28 c -12.377,12.987 -11.877,33.739 1.11,46.116 l 24.897,23.726 c 12.987,12.376 33.739,11.877 46.115,-1.11 L 1.11,46.115 C 13.487,33.128 12.987,12.376 0,0"
             style="fill:#55b9ff;fill-opacity:1;fill-rule:nonzero;stroke:none"
             id="path88" />
        </g>
        <g
           id="g90"
           transform="translate(195.4811,284.5216)">
          <path
             d="m 0,0 -18.94,-18.049 c -6.75,-6.433 -17.535,-6.173 -23.968,0.577 L -57.61,-2.045 c -6.432,6.75 -6.173,17.536 0.577,23.968 l 18.94,18.049 c 6.75,6.433 17.536,6.173 23.968,-0.577 L 0.577,23.968 C 7.01,17.218 6.75,6.433 0,0"
             style="fill:#ffffff;fill-opacity:1;fill-rule:nonzero;stroke:none"
             id="path92" />
        </g>
        <g
           id="g94"
           transform="translate(304.1125,357.2298)">
          <path
             d="m 0,0 -24.897,-23.726 c -12.987,-12.377 -33.739,-11.877 -46.115,1.11 l -24.092,25.28 c -12.377,12.987 -11.877,33.739 1.11,46.116 l 24.897,23.726 c 12.987,12.376 33.739,11.877 46.115,-1.11 L 1.11,46.115 C 13.487,33.128 12.987,12.376 0,0"
             style="fill:#55b9ff;fill-opacity:1;fill-rule:nonzero;stroke:none"
             id="path96" />
        </g>
        <g
           id="g98"
           transform="translate(285.6808,370.1084)">
          <path
             d="m 0,0 -18.94,-18.049 c -6.75,-6.433 -17.535,-6.173 -23.968,0.577 L -57.61,-2.045 c -6.432,6.75 -6.173,17.536 0.577,23.968 l 18.94,18.049 c 6.75,6.433 17.536,6.173 23.968,-0.577 L 0.577,23.968 C 7.01,17.218 6.75,6.433 0,0"
             style="fill:#ffffff;fill-opacity:1;fill-rule:nonzero;stroke:none"
             id="path100" />
        </g>
        <g
           id="g102"
           transform="translate(244.7157,352.1127)">
          <path
             d="m 0,0 -45.962,-45.962 c -5.445,-5.445 -14.354,-5.445 -19.799,0 l -1.414,1.414 c -5.445,5.445 -5.445,14.355 0,19.799 l 45.962,45.962 c 5.445,5.445 14.354,5.445 19.799,0 L 0,19.799 C 5.445,14.354 5.445,5.445 0,0"
             style="fill:#55b9ff;fill-opacity:1;fill-rule:nonzero;stroke:none"
             id="path104" />
        </g>
        <g
           id="g106"
           transform="translate(244.7157,352.1127)">
          <path
             d="m 0,0 -45.962,-45.962 c -5.445,-5.445 -14.354,-5.445 -19.799,0 l -1.414,1.414 c -5.445,5.445 -5.445,14.355 0,19.799 l 45.962,45.962 c 5.445,5.445 14.354,5.445 19.799,0 L 0,19.799 C 5.445,14.354 5.445,5.445 0,0 Z"
             style="fill:none;stroke:#ffffff;stroke-width:8;stroke-linecap:butt;stroke-linejoin:miter;stroke-miterlimit:10;stroke-dasharray:none;stroke-opacity:1"
             id="path108" />
        </g>
      </g>
    </g>
  </g>
</svg>
